<svg width="100" height="28" viewBox="0 0 126 32" fill="none" xmlns="http://www.w3.org/2000/svg">
<path d="M11.348 25.36C17.252 25.36 21.248 21.868 21.248 16.396V16.108H18.512V16.396C18.512 20.644 16.244 22.876 11.204 22.876C5.552 22.876 3.068 19.636 3.068 12.94C3.068 6.244 5.552 3.004 11.204 3.004C16.244 3.004 18.512 5.236 18.512 9.484V9.772H21.248V9.484C21.248 4.012 17.252 0.52 11.348 0.52C4.508 0.52 0.368 5.416 0.368 12.94C0.368 20.464 4.508 25.36 11.348 25.36ZM31.3362 25.36C34.7202 25.36 36.9882 23.74 38.0322 21.688L38.2122 21.724V25H40.5522V13.876C40.5522 9.916 38.3922 6.856 33.6402 6.856C29.0322 6.856 26.1882 9.808 26.1882 13.516V13.804H28.6722V13.264C28.6722 10.42 30.1842 9.16 33.4242 9.16C36.7722 9.16 38.1042 10.42 38.1042 13.552V14.848L31.8402 15.712C27.9522 16.252 25.6482 17.62 25.6482 20.716C25.6482 23.704 28.0962 25.36 31.3362 25.36ZM28.1682 20.536C28.1682 18.628 29.2122 18.052 32.0562 17.656L38.1042 16.792V17.404C38.1042 21.616 35.1162 23.2 32.0562 23.2C29.3202 23.2 28.1682 22.372 28.1682 20.536ZM48.9033 25V14.74C48.9033 10.78 50.8113 9.124 54.3393 9.124C57.9753 9.124 59.2353 10.816 59.2353 14.668V25H61.7913V14.092C61.7913 9.808 59.7033 6.856 55.1313 6.856C51.4593 6.856 49.4433 9.016 48.7593 10.888H48.6513V7.216H46.3113V25H48.9033ZM75.3673 25.36C80.5513 25.36 83.8633 21.508 83.8633 16.108C83.8633 10.708 80.5513 6.856 75.3673 6.856C70.1473 6.856 66.7273 10.708 66.7273 16.108C66.7273 21.508 70.1473 25.36 75.3673 25.36ZM75.3673 23.056C71.0113 23.056 69.2833 20.536 69.2833 16.108C69.2833 11.68 71.0113 9.196 75.3673 9.196C79.6513 9.196 81.3433 11.68 81.3433 16.108C81.3433 20.536 79.6513 23.056 75.3673 23.056ZM91.3861 31.264V21.616C92.1781 23.56 94.3741 25.36 97.7941 25.36C102.654 25.36 105.282 21.724 105.282 16.144C105.282 10.492 102.51 6.856 97.5061 6.856C94.1581 6.856 92.0341 8.404 91.2421 10.672H91.1341V7.216H88.7941V31.264H91.3861ZM91.3861 17.656V14.596C91.3861 10.924 93.5461 9.088 97.0741 9.088C100.566 9.088 102.69 10.672 102.69 16.144C102.69 21.544 100.53 23.128 97.0741 23.128C93.5461 23.128 91.3861 21.292 91.3861 17.656ZM111.746 31.12C113.69 31.12 115.382 30.544 116.534 27.844L125.21 7.216H122.402L118.478 17.116L116.714 21.472H116.498L114.626 17.116L110.45 7.216H107.642L115.274 24.748L114.266 27.052C113.618 28.456 113.078 28.78 111.458 28.78H109.442V30.868C109.946 30.976 110.882 31.12 111.746 31.12Z" fill="#0D0D0D"/>
</svg>
